<?xml version="1.0" encoding="UTF-8" standalone="no"?>
<!DOCTYPE svg PUBLIC "-//W3C//DTD SVG 1.1//EN" "http://www.w3.org/Graphics/SVG/1.1/DTD/svg11.dtd">
<svg xmlns="http://www.w3.org/2000/svg" version="1.1" viewBox="0.00 0.00 3125.00 412.00">
<path fill="#f29100" d="
  M 1474.88 412.00
  L 1466.25 412.00
  Q 1384.21 409.20 1326.31 352.18
  C 1289.92 316.36 1268.11 268.10 1265.87 217.00
  C 1265.12 199.89 1265.94 182.44 1269.39 165.68
  Q 1283.30 98.00 1335.60 51.85
  C 1388.39 5.27 1462.35 -11.08 1529.89 9.23
  Q 1581.96 24.89 1619.58 63.89
  Q 1669.44 115.57 1676.21 186.77
  Q 1678.84 214.46 1674.05 242.89
  C 1669.19 271.77 1657.27 299.54 1640.56 323.56
  Q 1640.24 324.02 1640.76 324.25
  Q 1657.42 331.67 1675.74 331.49
  Q 1676.25 331.49 1676.25 332.00
  L 1676.25 401.76
  Q 1676.25 402.31 1675.71 402.32
  Q 1627.94 403.22 1588.89 376.27
  Q 1588.45 375.97 1587.98 376.24
  Q 1581.86 379.78 1575.87 383.32
  Q 1529.29 410.87 1474.88 412.00
  Z
  M 1467.82 250.51
  Q 1477.79 251.13 1487.74 251.57
  Q 1501.93 252.20 1523.48 256.58
  Q 1554.06 262.79 1582.21 281.59
  Q 1582.66 281.89 1582.96 281.45
  C 1619.56 227.85 1612.09 157.60 1567.05 111.71
  Q 1536.28 80.36 1493.65 73.07
  C 1460.02 67.33 1424.15 75.55 1396.47 94.47
  C 1379.31 106.21 1362.39 124.59 1352.52 143.70
  Q 1326.87 193.35 1343.40 247.23
  C 1366.06 321.08 1450.18 361.87 1521.93 330.95
  Q 1522.25 330.81 1521.92 330.70
  Q 1495.39 321.45 1467.24 321.72
  Q 1466.76 321.72 1466.77 321.25
  L 1467.28 251.01
  Q 1467.28 250.47 1467.82 250.51
  Z"
/>
<path fill="#f29100" d="
  M 3125.00 402.77
  Q 3124.98 402.87 3125.00 402.96
  L 3052.03 402.97
  A 0.89 0.89 0.0 0 1 3051.24 402.49
  L 2934.02 172.79
  Q 2933.75 172.25 2933.49 172.80
  L 2824.12 402.73
  Q 2823.99 403.00 2823.69 403.00
  L 2748.24 403.00
  Q 2747.45 403.00 2747.79 402.28
  L 2932.23 11.79
  Q 2932.44 11.34 2932.66 11.78
  L 3125.00 402.77
  Z"
/>
<path fill="#f29100" d="
  M 2135.15 172.54
  Q 2135.00 172.25 2134.85 172.55
  L 2025.47 402.52
  Q 2025.24 403.00 2024.72 403.00
  L 1949.26 403.00
  Q 1948.70 403.00 1948.94 402.49
  L 2133.37 12.03
  Q 2133.53 11.70 2133.69 12.02
  L 2325.89 402.34
  Q 2326.21 403.00 2325.47 403.00
  L 2253.28 403.00
  A 0.86 0.85 76.3 0 1 2252.52 402.53
  L 2135.15 172.54
  Z"
/>
<path fill="#f29100" d="
  M 372.68 172.39
  L 262.97 402.53
  Q 262.74 403.00 262.22 403.00
  L 187.01 403.00
  Q 186.48 403.00 186.71 402.52
  L 370.92 12.28
  Q 371.11 11.87 371.31 12.28
  L 563.49 402.55
  Q 563.71 403.00 563.21 403.00
  L 490.78 403.00
  A 0.86 0.85 76.3 0 1 490.02 402.53
  L 372.82 172.39
  A 0.08 0.08 0.0 0 0 372.68 172.39
  Z"
/>
<path fill="#f29100" d="
  M 1071.99 172.78
  L 962.72 402.52
  Q 962.49 403.00 961.97 403.00
  L 886.77 403.00
  Q 886.04 403.00 886.35 402.34
  Q 954.44 257.82 1022.66 113.44
  Q 1052.67 49.92 1070.69 12.52
  Q 1070.93 12.01 1071.18 12.51
  L 1263.14 402.34
  Q 1263.46 403.00 1262.73 403.00
  L 1190.41 403.00
  Q 1189.76 403.00 1189.46 402.42
  L 1072.51 172.78
  Q 1072.25 172.25 1071.99 172.78
  Z"
/>
<path fill="#f29100" d="
  M 70.75 271.52
  L 70.75 402.50
  Q 70.75 403.00 70.25 403.00
  L 0.75 403.00
  Q 0.25 403.00 0.25 402.50
  L 0.25 13.51
  Q 0.25 13.03 0.74 13.02
  Q 35.06 12.93 69.24 13.06
  Q 70.16 13.06 70.93 13.51
  Q 71.35 13.76 71.85 13.76
  Q 87.55 13.74 103.25 13.74
  C 145.39 13.74 183.62 32.76 208.16 67.19
  Q 236.55 107.00 231.93 156.09
  C 228.51 192.48 207.30 226.27 177.88 247.13
  Q 144.74 270.64 102.98 270.89
  Q 87.14 270.99 71.25 271.02
  Q 70.75 271.02 70.75 271.52
  Z
  M 70.54 84.61
  L 70.94 199.25
  A 0.25 0.25 0.0 0 0 71.19 199.50
  L 104.35 199.38
  A 57.35 57.26 -0.2 0 0 161.50 141.92
  L 161.50 141.30
  A 57.35 57.26 -0.2 0 0 103.95 84.24
  L 70.79 84.36
  A 0.25 0.25 0.0 0 0 70.54 84.61
  Z"
/>
<path fill="#f29100" d="
  M 677.50 271.05
  L 677.50 402.50
  Q 677.50 403.00 677.00 403.00
  L 607.00 403.00
  Q 606.50 403.00 606.50 402.50
  L 606.50 13.52
  Q 606.50 13.04 606.98 13.03
  Q 641.50 12.92 675.86 13.03
  C 676.96 13.03 677.59 13.76 678.67 13.76
  Q 694.46 13.72 710.24 13.73
  Q 757.18 13.76 791.89 42.39
  Q 822.76 67.87 834.31 106.83
  C 845.98 146.21 837.63 190.29 811.46 221.94
  Q 791.76 245.77 763.18 258.92
  Q 762.97 259.01 763.08 259.21
  L 848.70 402.56
  A 0.29 0.29 0.0 0 1 848.45 403.00
  L 767.05 403.00
  A 0.93 0.92 74.4 0 1 766.26 402.55
  L 687.74 271.12
  Q 687.53 270.75 687.10 270.75
  L 677.82 270.73
  Q 677.50 270.73 677.50 271.05
  Z
  M 677.57 84.53
  L 677.37 199.23
  A 0.27 0.27 0.0 0 0 677.64 199.50
  L 710.51 199.56
  A 57.68 57.62 0.1 0 0 768.29 142.04
  L 768.29 142.04
  A 57.68 57.62 0.1 0 0 710.71 84.32
  L 677.84 84.26
  A 0.27 0.27 0.0 0 0 677.57 84.53
  Z"
/>
<path fill="#f29100" d="
  M 2441.00 271.25
  L 2441.00 402.50
  A 0.50 0.50 0.0 0 1 2440.50 403.00
  L 2370.75 403.00
  Q 2370.25 403.00 2370.25 402.50
  L 2370.25 13.52
  Q 2370.25 13.06 2370.71 13.05
  Q 2418.86 12.87 2440.24 13.03
  Q 2440.62 13.03 2440.98 13.40
  Q 2441.31 13.74 2441.78 13.74
  Q 2458.77 13.72 2475.74 13.95
  Q 2526.89 14.64 2563.04 49.44
  Q 2587.29 72.78 2597.15 104.83
  C 2609.42 144.73 2601.96 188.85 2575.49 221.24
  Q 2555.68 245.49 2526.99 258.93
  Q 2526.74 259.05 2526.88 259.29
  L 2612.34 402.38
  Q 2612.71 403.00 2612.00 403.00
  L 2530.94 403.00
  Q 2530.28 403.00 2529.94 402.43
  L 2451.56 271.22
  Q 2451.28 270.75 2450.73 270.75
  L 2441.50 270.75
  Q 2441.00 270.75 2441.00 271.25
  Z
  M 2440.89 84.97
  L 2441.09 198.83
  A 0.59 0.59 0.0 0 0 2441.68 199.42
  L 2474.59 199.36
  A 57.22 57.21 -0.1 0 0 2531.71 142.05
  L 2531.71 141.43
  A 57.22 57.21 -0.1 0 0 2474.39 84.32
  L 2441.48 84.38
  A 0.59 0.59 0.0 0 0 2440.89 84.97
  Z"
/>
<rect fill="#f29100" x="2644.75" y="13.00" width="70.74" height="390.00" rx="0.27"/>
<path fill="#f29100" d="
  M 1862.58 240.92
  L 1969.31 16.99
  Q 1969.54 16.51 1970.07 16.51
  L 2046.47 16.50
  Q 2046.95 16.50 2046.75 16.94
  Q 1954.93 208.98 1863.50 401.18
  Q 1863.03 402.18 1862.58 403.21
  Q 1862.41 403.60 1862.33 403.19
  Q 1862.11 402.08 1861.90 401.66
  Q 1836.31 349.57 1811.29 297.21
  Q 1744.32 157.05 1677.25 16.94
  Q 1677.04 16.50 1677.52 16.50
  L 1753.93 16.51
  Q 1754.46 16.51 1754.69 16.99
  L 1862.42 240.92
  Q 1862.50 241.09 1862.58 240.92
  Z"
/>
</svg>
